# xmcd
#
# Track frame offsets: 
#        150
#        32490
#        62505
#        105665
#        127902
#        147982
#        177665
#        195792
#
# Disc length: 3047 seconds
#
# Revision: 0
# Processed by: cddbd v1.5.2PL0 Copyright (c) Steve Scherf et al.
# Submitted via: ExactAudioCopy v0.99pb1
#
DISCID=640be508
DTITLE=Cream - Moon Beams CD2
DYEAR=1968
DGENRE=Blues
TTITLE0=White Room
TTITLE1=Politician
TTITLE2=I'm So Glad
TTITLE3=Sitting On Top Of The World
TTITLE4=Crossroads
TTITLE5=Sunshine Of Your Love
TTITLE6=Passing The Time - Drum Solo
TTITLE7=I'm So Glad (Different Mix)
EXTD=
EXTT0=
EXTT1=
EXTT2=
EXTT3=
EXTT4=
EXTT5=
EXTT6=
EXTT7=
PLAYORDER=
